HIERARCHY
ROOT Hips
{
	OFFSET 0.000000 0.000000 0.000000
	CHANNELS 6 Xposition Yposition Zposition Zrotation Yrotation Xrotation 
	JOINT LowerBack
	{
		OFFSET 0.000000 0.000000 0.000000
		CHANNELS 3 Zrotation Yrotation Xrotation
		JOINT Spine
		{
			OFFSET 0.028270 2.035590 -0.193380
			CHANNELS 3 Zrotation Yrotation Xrotation
			JOINT Spine1
			{
				OFFSET 0.056720 2.048850 -0.042750
				CHANNELS 3 Zrotation Yrotation Xrotation
				JOINT Neck
				{
					OFFSET 0.000000 0.000000 0.000000
					CHANNELS 3 Zrotation Yrotation Xrotation
					JOINT Neck1
					{
						OFFSET -0.054170 1.746240 0.172020
						CHANNELS 3 Zrotation Yrotation Xrotation
						JOINT Head
						{
							OFFSET 0.104070 1.761360 -0.123970
							CHANNELS 3 Zrotation Yrotation Xrotation
							End Site
							{
								OFFSET 0.000000 0.000000 0.000000
							}
						}
					}
				}
				JOINT LeftShoulder
				{
					OFFSET 0.000000 0.000000 0.000000
					CHANNELS 3 Zrotation Yrotation Xrotation
					JOINT LeftArm
					{
						OFFSET 3.362410 1.200890 -0.311210
						CHANNELS 3 Zrotation Yrotation Xrotation
						JOINT LeftForeArm
						{
							OFFSET 4.983000 -0.000000 -0.000000
							CHANNELS 3 Zrotation Yrotation Xrotation
							JOINT LeftHand
							{
								OFFSET 3.483560 -0.000000 -0.000000
								CHANNELS 3 Zrotation Yrotation Xrotation
								JOINT LeftFingerBase
								{
									OFFSET 0.000000 0.000000 0.000000
									CHANNELS 3 Zrotation Yrotation Xrotation
									JOINT LeftHandIndex1
									{
										OFFSET 0.715260 -0.000000 -0.000000
										CHANNELS 3 Zrotation Yrotation Xrotation
										End Site
										{
											OFFSET 0.000000 0.000000 0.000000
										}
									}
								}
								JOINT LThumb
								{
									OFFSET 0.000000 0.000000 0.000000
									CHANNELS 3 Zrotation Yrotation Xrotation
									End Site
									{
										OFFSET 0.000000 0.000000 0.000000
									}
								}
							}
						}
					}
				}
				JOINT RightShoulder
				{
					OFFSET 0.000000 0.000000 0.000000
					CHANNELS 3 Zrotation Yrotation Xrotation
					JOINT RightArm
					{
						OFFSET -3.136600 1.374050 -0.404650
						CHANNELS 3 Zrotation Yrotation Xrotation
						JOINT RightForeArm
						{
							OFFSET -5.241900 -0.000000 -0.000000
							CHANNELS 3 Zrotation Yrotation Xrotation
							JOINT RightHand
							{
								OFFSET -3.444170 -0.000000 -0.000000
								CHANNELS 3 Zrotation Yrotation Xrotation
								JOINT RightFingerBase
								{
									OFFSET 0.000000 0.000000 0.000000
									CHANNELS 3 Zrotation Yrotation Xrotation
									JOINT RightHandIndex1
									{
										OFFSET -0.622530 -0.000000 -0.000000
										CHANNELS 3 Zrotation Yrotation Xrotation
										End Site
										{
											OFFSET 0.000000 0.000000 0.000000
										}
									}
								}
								JOINT RThumb
								{
									OFFSET 0.000000 0.000000 0.000000
									CHANNELS 3 Zrotation Yrotation Xrotation
									End Site
									{
										OFFSET 0.000000 0.000000 0.000000
									}
								}
							}
						}
					}
				}
			}
		}
	}
}
}
MOTION
Frames: 14
Frame Time: 0.008333
1.852413 17.064628 -1.945127 -24.368926 82.763171 -13.296740 5.022111 -5.062494 -7.306776 0.763303 -5.839966 -3.859650 -6.141397 -5.898069 1.798239 10.677571 -18.264405 -9.461097 -3.392519 -0.251335 -0.390713 0.000000 0.000000 0.000000 -3.389362 6.080002 -0.011193 -70.404188 -7.249246 7.499991 -2.101050 -48.650046 -0.033865 12.960067 -2.195181 -0.272099 -0.138737 0.186184 0.000000 0.000000 0.000000 0.000000 0.000000 0.000000 0.000000 17.756953 -17.382617 -0.053307 62.332385 -4.991788 -13.247769 2.880722 37.443504 0.003931 -4.878033 3.888116 -0.173688 0.145017 -0.083927 0.000000 0.000000 0.000000 0.000000 0.000000 0.000000 0.000000 
2.023130 17.070447 -1.983242 -30.890810 82.844259 -19.976545 5.670996 -4.972847 -7.258857 0.883459 -5.818425 -3.861250 -6.178190 -5.875066 1.801631 10.679176 -18.162655 -9.467988 -3.419509 -0.253984 -0.392956 0.000000 0.000000 0.000000 -3.587618 6.353700 -0.010493 -71.000133 -6.717722 7.471221 -2.109110 -47.860435 -0.032628 13.001219 -2.184421 -0.270858 -0.136115 0.179029 0.000000 0.000000 0.000000 0.000000 0.000000 0.000000 0.000000 17.864566 -17.229383 -0.097748 62.365361 -4.586780 -12.840275 2.888123 37.386770 0.003895 -4.911302 3.907022 -0.175683 0.144749 -0.084224 0.000000 0.000000 0.000000 0.000000 0.000000 0.000000 0.000000 
2.191730 17.076888 -2.019411 -37.251022 82.920476 -26.472997 6.218695 -4.888782 -7.229426 0.981006 -5.792903 -3.863118 -6.223784 -5.848008 1.813958 10.716485 -18.066780 -9.482035 -3.450156 -0.256888 -0.397106 0.000000 0.000000 0.000000 -3.734931 6.645528 -0.012203 -71.576848 -6.181897 7.506472 -2.115321 -47.046564 -0.031310 13.031805 -2.160471 -0.267916 -0.133464 0.171559 0.000000 0.000000 0.000000 0.000000 0.000000 0.000000 0.000000 18.031735 -17.078772 -0.145449 62.430113 -4.163762 -12.417399 2.896076 37.303962 0.003901 -4.949069 3.943609 -0.178577 0.144382 -0.084443 0.000000 0.000000 0.000000 0.000000 0.000000 0.000000 0.000000 
2.357979 17.084104 -2.053910 -43.599799 82.986780 -32.933672 6.683620 -4.805731 -7.219632 1.059064 -5.761036 -3.866395 -6.278729 -5.814448 1.832219 10.783616 -17.971411 -9.500391 -3.484174 -0.260068 -0.402317 0.000000 0.000000 0.000000 -3.839788 6.942137 -0.015560 -72.123679 -5.628721 7.601010 -2.118944 -46.225890 -0.029912 13.047218 -2.122690 -0.262973 -0.130692 0.163815 0.000000 0.000000 0.000000 0.000000 0.000000 0.000000 0.000000 18.246462 -16.924022 -0.193358 62.535477 -3.726818 -12.000879 2.905146 37.187640 0.003948 -4.990329 4.000686 -0.182570 0.143927 -0.084676 0.000000 0.000000 0.000000 0.000000 0.000000 0.000000 0.000000 
2.521683 17.092184 -2.086871 -50.020225 83.041359 -39.439909 7.072834 -4.721992 -7.230363 1.118777 -5.722066 -3.871507 -6.342701 -5.773534 1.855457 10.876634 -17.876816 -9.522730 -3.520926 -0.263481 -0.408465 0.000000 0.000000 0.000000 -3.908265 7.238300 -0.020048 -72.631029 -5.054962 7.755472 -2.119992 -45.408977 -0.028437 13.043775 -2.072031 -0.256130 -0.127778 0.155845 0.000000 0.000000 0.000000 0.000000 0.000000 0.000000 0.000000 18.500725 -16.764861 -0.239669 62.685384 -3.274173 -11.597961 2.915461 37.032597 0.004028 -5.038537 4.077503 -0.187760 0.143425 -0.084970 -0.000000 0.000000 0.000000 0.000000 0.000000 0.000000 0.000000 
2.682564 17.101193 -2.118236 -56.524277 83.087333 -46.005938 7.380239 -4.637365 -7.258182 1.158569 -5.675043 -3.877629 -6.415354 -5.724222 1.883687 10.994483 -17.783825 -9.549884 -3.559970 -0.267074 -0.415811 0.000000 0.000000 0.000000 -3.942651 7.536443 -0.025186 -73.091199 -4.468446 7.975930 -2.119176 -44.598729 -0.026886 13.018729 -2.010647 -0.247584 -0.124770 0.147696 0.000000 0.000000 0.000000 0.000000 0.000000 0.000000 0.000000 18.792481 -16.601533 -0.283533 62.880694 -2.804582 -11.206056 2.926458 36.838904 0.004121 -5.100541 4.170052 -0.194248 0.142928 -0.085336 -0.000000 0.000000 0.000000 0.000000 0.000000 0.000000 0.000000 
2.840489 17.111172 -2.148447 -63.227854 83.118368 -52.749796 7.616529 -4.552100 -7.300319 1.180808 -5.620915 -3.884862 -6.495034 -5.667386 1.915325 11.129313 -17.689434 -9.580704 -3.600346 -0.270775 -0.424068 0.000000 0.000000 0.000000 -3.952560 7.833786 -0.029739 -73.497766 -3.869724 8.259835 -2.116869 -43.803303 -0.025269 12.968965 -1.940465 -0.237635 -0.121683 0.139444 0.000000 0.000000 0.000000 0.000000 0.000000 0.000000 0.000000 19.107872 -16.431365 -0.323574 63.124695 -2.318678 -10.830004 2.937898 36.606421 0.004214 -5.176428 4.273896 -0.201937 0.142450 -0.085809 -0.000000 0.000000 0.000000 0.000000 0.000000 0.000000 0.000000 
2.995294 17.122038 -2.177631 -70.146523 83.129645 -59.691602 7.780680 -4.466087 -7.351563 1.185246 -5.558864 -3.893059 -6.580296 -5.602188 1.947055 11.274561 -17.589300 -9.612040 -3.641629 -0.274571 -0.432402 0.000000 0.000000 0.000000 -3.942516 8.117297 -0.032761 -73.846045 -3.248586 8.594151 -2.112907 -43.036811 -0.023595 12.891812 -1.863943 -0.226584 -0.118484 0.131129 0.000000 0.000000 0.000000 0.000000 0.000000 0.000000 0.000000 19.435769 -16.250390 -0.357780 63.421248 -1.820902 -10.476253 2.949450 36.337742 0.004292 -5.262812 4.383702 -0.210424 0.141974 -0.086422 -0.000000 0.000000 0.000000 0.000000 0.000000 0.000000 0.000000 
3.146837 17.133707 -2.205977 -77.280931 83.111084 -66.835616 7.875389 -4.378893 -7.407268 1.172604 -5.488146 -3.901624 -6.669437 -5.527872 1.978090 11.424561 -17.480877 -9.643608 -3.683024 -0.278379 -0.440804 0.000000 0.000000 0.000000 -3.918042 8.391758 -0.033386 -74.133099 -2.613315 8.976685 -2.108049 -42.300600 -0.021879 12.787310 -1.783531 -0.214630 -0.115232 0.122804 0.000000 0.000000 0.000000 0.000000 0.000000 0.000000 0.000000 19.767121 -16.055493 -0.385820 63.768911 -1.313168 -10.139075 2.960400 36.040715 0.004335 -5.358986 4.491867 -0.219309 0.141507 -0.087178 -0.000000 0.000000 0.000000 0.000000 0.000000 0.000000 0.000000 
3.295001 17.146024 -2.233631 -84.582078 83.051312 -74.135262 7.902887 -4.289236 -7.462679 1.143471 -5.407195 -3.910088 -6.761117 -5.442918 2.006742 11.574178 -17.360306 -9.673962 -3.724095 -0.282157 -0.448936 0.000000 0.000000 0.000000 -3.882505 8.656437 -0.030867 -74.357670 -1.966565 9.398758 -2.102725 -41.598797 -0.020131 12.656233 -1.702290 -0.202472 -0.111954 0.114509 0.000000 0.000000 0.000000 0.000000 0.000000 0.000000 0.000000 20.093999 -15.842228 -0.407068 64.165475 -0.799668 -9.814182 2.970132 35.725329 0.004331 -5.460665 4.591381 -0.228297 0.141032 -0.088085 -0.000000 0.000000 0.000000 0.000000 0.000000 0.000000 0.000000 
3.439672 17.158822 -2.260662 -91.960274 82.938015 -81.503991 7.867191 -4.195210 -7.512879 1.098924 -5.314101 -3.918208 -6.853990 -5.345546 2.030052 11.717758 -17.223799 -9.700341 -3.764469 -0.285885 -0.456079 0.000000 0.000000 0.000000 -3.838156 8.902177 -0.024517 -74.519685 -1.301948 9.841802 -2.096886 -40.940300 -0.018370 12.499995 -1.622101 -0.190111 -0.108635 0.106262 0.000000 0.000000 0.000000 0.000000 0.000000 0.000000 0.000000 20.407097 -15.606539 -0.420418 64.609100 -0.284923 -9.497574 2.978133 35.401712 0.004270 -5.561876 4.677517 -0.236783 0.140523 -0.089167 -0.000000 0.000000 0.000000 0.000000 0.000000 0.000000 0.000000 
3.580824 17.171857 -2.287166 -99.300603 82.755738 -88.826169 7.778113 -4.094519 -7.555843 1.041449 -5.207575 -3.925566 -6.946905 -5.234616 2.048260 11.851861 -17.067638 -9.723121 -3.803583 -0.289490 -0.462407 0.000000 0.000000 0.000000 -3.787178 9.141303 -0.013715 -74.622040 -0.636062 10.304396 -2.091511 -40.316995 -0.016614 12.323402 -1.545721 -0.178246 -0.105366 0.098110 0.000000 0.000000 0.000000 0.000000 0.000000 0.000000 0.000000 20.701053 -15.343168 -0.426836 65.091955 0.226002 -9.176215 2.983531 35.087403 0.004143 -5.658532 4.744477 -0.244269 0.139965 -0.090423 -0.000000 0.000000 0.000000 0.000000 0.000000 0.000000 0.000000 
3.718368 17.184856 -2.313296 -106.452696 82.492466 -95.955293 7.644861 -3.985084 -7.585360 0.973438 -5.086286 -3.931240 -7.038936 -5.109015 2.060226 11.973211 -16.886235 -9.741151 -3.841159 -0.292930 -0.467699 0.000000 0.000000 0.000000 -3.729505 9.378372 0.002397 -74.668310 0.019946 10.778472 -2.087199 -39.722877 -0.014882 12.132193 -1.475312 -0.167079 -0.102210 0.090088 0.000000 0.000000 0.000000 0.000000 0.000000 0.000000 0.000000 20.970499 -15.045556 -0.426879 65.605917 0.725873 -8.839619 2.985423 34.800088 0.003949 -5.745864 4.790143 -0.250355 0.139327 -0.091870 -0.000000 0.000000 0.000000 0.000000 0.000000 0.000000 0.000000 
3.852461 17.197543 -2.339270 -113.270144 82.131901 -102.737930 7.487593 -3.863837 -7.608058 0.900082 -4.950027 -3.937608 -7.128002 -4.968820 2.061685 12.073493 -16.686134 -9.750559 -3.876202 -0.296188 -0.470773 0.000000 0.000000 0.000000 -3.671807 9.580182 0.023262 -74.661722 0.701009 11.220749 -2.082435 -39.184718 -0.013187 11.929006 -1.410398 -0.156508 -0.099028 0.082175 0.000000 0.000000 0.000000 0.000000 0.000000 0.000000 0.000000 21.199108 -14.722416 -0.418021 66.148069 1.221540 -8.479904 2.984923 34.538369 0.003704 -5.815166 4.818362 -0.254842 0.138616 -0.093559 -0.000000 0.000000 0.000000 0.000000 0.000000 0.000000 0.000000 
